# xmcd
#
# Track frame offsets: 
#        150
#        38748
#        59343
#        93083
#        124882
#        134343
#        145881
#        176056
#        203285
#        229568
#        241586
#        270636
#        287151
#        298932
#
# Disc length: 4309 seconds
#
# Revision: 0
# Processed by: cddbd v1.5.1PL0 Copyright (c) Steve Scherf et al.
# Submitted via: ExactAudioCopy v0.95a5
#
DISCID=c810d30e
DTITLE=Absolutely Live at the Rhythm Cafe - Billy Watson and His Inter
DTITLE=national Silver String Submarine Band
DYEAR=2001
DGENRE=Blues
TTITLE0=Disinterested Wedding Song
TTITLE1=Swing from the Rafters
TTITLE2=Sadie
TTITLE3=Your Funeral My Trail
TTITLE4=George Smith Boogie
TTITLE5=Cadence Of The Crimson Conquistadores
TTITLE6=Evil
TTITLE7=When It Rains It Pours
TTITLE8=Sunshire Of Your Love
TTITLE9=Attack Of The Medium Tempo Swing
TTITLE10=You Ain't Gettin Any Youndger
TTITLE11=Long As I Have You
TTITLE12=Urban Mence
TTITLE13=Checkin On My Baby
EXTD=
EXTT0=
EXTT1=
EXTT2=
EXTT3=
EXTT4=
EXTT5=
EXTT6=
EXTT7=
EXTT8=
EXTT9=
EXTT10=
EXTT11=
EXTT12=
EXTT13=
PLAYORDER=
